<?xml version="1.0" encoding="UTF-8" standalone="no"?>
<!-- Created with Inkscape (http://www.inkscape.org/) -->

<svg
   xmlns:dc="http://purl.org/dc/elements/1.1/"
   xmlns:cc="http://creativecommons.org/ns#"
   xmlns:rdf="http://www.w3.org/1999/02/22-rdf-syntax-ns#"
   xmlns:svg="http://www.w3.org/2000/svg"
   xmlns="http://www.w3.org/2000/svg"
   xmlns:sodipodi="http://sodipodi.sourceforge.net/DTD/sodipodi-0.dtd"
   xmlns:inkscape="http://www.inkscape.org/namespaces/inkscape"
   width="210.06979mm"
   height="210.06979mm"
   viewBox="0 0 210.06979 210.06979"
   version="1.1"
   id="svg8"
   inkscape:version="0.92.5 (2060ec1f9f, 2020-04-08)"
   sodipodi:docname="faceIcon.svg">
  <defs
     id="defs2">
    <inkscape:path-effect
       effect="bend_path"
       id="path-effect888"
       is_visible="true"
       bendpath="M 89.429164,54.112498 H 153.19374"
       prop_scale="1"
       scale_y_rel="false"
       vertical="false" />
  </defs>
  <sodipodi:namedview
     id="base"
     pagecolor="#ffffff"
     bordercolor="#666666"
     borderopacity="1.0"
     inkscape:pageopacity="0.0"
     inkscape:pageshadow="2"
     inkscape:zoom="0.35355339"
     inkscape:cx="-385.63923"
     inkscape:cy="156.7655"
     inkscape:document-units="mm"
     inkscape:current-layer="layer1"
     showgrid="false"
     inkscape:snap-smooth-nodes="true"
     inkscape:snap-global="true"
     inkscape:window-width="1920"
     inkscape:window-height="966"
     inkscape:window-x="0"
     inkscape:window-y="28"
     inkscape:window-maximized="1"
     inkscape:snap-bbox="true"
     inkscape:bbox-paths="true"
     inkscape:snap-bbox-edge-midpoints="true"
     showguides="true"
     inkscape:guide-bbox="true"
     fit-margin-top="0"
     fit-margin-left="0"
     fit-margin-right="0"
     fit-margin-bottom="0" />
  <metadata
     id="metadata5">
    <rdf:RDF>
      <cc:Work
         rdf:about="">
        <dc:format>image/svg+xml</dc:format>
        <dc:type
           rdf:resource="http://purl.org/dc/dcmitype/StillImage" />
        <dc:title />
      </cc:Work>
    </rdf:RDF>
  </metadata>
  <g
     inkscape:label="Layer 1"
     inkscape:groupmode="layer"
     id="layer1"
     transform="translate(-1.3276062,1.2398987)">
    <circle
       style="fill:#0d6efd;fill-opacity:1;stroke-width:0.26458332"
       id="path1405"
       cx="106.3625"
       cy="103.795"
       r="105.0349" />
    <path
       style="fill:#000000;fill-opacity:1;stroke-width:1.10989368"
       d="m 113.33594,664.45312 a 396.98229,396.98229 0 0 0 3.88672,4.42383 396.98229,396.98229 0 0 0 29.03515,27.04883 396.98229,396.98229 0 0 0 31.58985,24.01367 396.98229,396.98229 0 0 0 33.82812,20.74219 396.98229,396.98229 0 0 0 35.73242,17.25977 396.98229,396.98229 0 0 0 37.27539,13.60547 396.98229,396.98229 0 0 0 38.44727,9.81835 396.98229,396.98229 0 0 0 39.23633,5.92969 396.98229,396.98229 0 0 0 39.63281,1.98438 396.98229,396.98229 0 0 0 28.08203,-0.9961 396.98229,396.98229 0 0 0 39.39258,-4.78125 396.98229,396.98229 0 0 0 38.7168,-8.68945 396.98229,396.98229 0 0 0 37.6582,-12.51367 396.98229,396.98229 0 0 0 36.2207,-16.20899 396.98229,396.98229 0 0 0 34.41992,-19.74414 396.98229,396.98229 0 0 0 32.27735,-23.08203 396.98229,396.98229 0 0 0 29.8125,-26.18945 396.98229,396.98229 0 0 0 11.99804,-12.87891 C 674.4006,616.98933 633.16045,583.51953 584.44727,583.51953 H 219.55273 c -48.80148,0 -90.10146,33.59199 -106.21679,80.93359 z"
       id="rect1409"
       transform="scale(0.26458333)"
       inkscape:connector-curvature="0" />
    <path
       style="fill:#28170b;fill-opacity:1;stroke-width:0.99999994"
       d="m 358,178.3457 c -53.74848,0 -97.72852,43.982 -97.72852,97.73047 v 90.54688 H 543.72852 V 276.07617 C 543.72852,222.3277 499.74847,178.3457 446,178.3457 Z"
       transform="scale(0.26458333)"
       id="path880"
       inkscape:connector-curvature="0" />
    <g
       id="g877"
       transform="translate(0.1896876)">
      <g
         id="g851">
        <circle
           style="fill:#e9c6af;fill-opacity:1;stroke-width:0.40655488"
           id="path843"
           cx="75.770905"
           cy="97.002197"
           r="11.786587" />
        <circle
           r="8.4189911"
           cy="97.002197"
           cx="75.770905"
           id="circle847"
           style="fill:#d7966c;fill-opacity:1;stroke-width:0.29039636" />
      </g>
      <g
         transform="translate(60.803818)"
         id="g857">
        <circle
           r="11.786587"
           cy="97.002197"
           cx="75.770905"
           id="circle853"
           style="fill:#e9c6af;fill-opacity:1;stroke-width:0.40655488" />
        <circle
           style="fill:#d7966c;fill-opacity:1;stroke-width:0.29039636"
           id="circle855"
           cx="75.770905"
           cy="97.002197"
           r="8.4189911" />
      </g>
    </g>
    <path
       style="fill:#e9c6af;fill-opacity:1;stroke-width:0.26458332"
       d="m 94.720833,53.200419 h 23.283337 c 10.99344,0 19.84375,8.850312 19.84375,19.84375 v 61.501651 c 0,10.99344 -8.85031,19.84375 -19.84375,19.84375 H 94.720833 c -10.993438,0 -19.84375,-8.85031 -19.84375,-19.84375 V 73.044169 c 0,-10.993438 8.850312,-19.84375 19.84375,-19.84375 z"
       id="rect815"
       inkscape:connector-curvature="0"
       sodipodi:nodetypes="sssssssss" />
    <g
       id="g827"
       transform="matrix(1.2654867,0,0,1.2654867,-24.387319,-33.320149)">
      <circle
         r="4.7624998"
         cy="95.387497"
         cx="91.28125"
         id="path817"
         style="fill:#000000;fill-opacity:1;stroke-width:0.26458332" />
      <circle
         style="fill:#000000;fill-opacity:1;stroke-width:0.26458332"
         id="circle821"
         cx="115.35833"
         cy="95.387497"
         r="4.7624998" />
    </g>
    <rect
       style="fill:#d7966c;fill-opacity:1;stroke-width:0.4374826"
       id="rect823"
       width="10.0448"
       height="30.085236"
       x="101.3401"
       y="83.29393"
       ry="7.4449492" />
    <path
       style="fill:#c83737;fill-opacity:1;stroke-width:0.26458332"
       d="m 89.693754,129.25412 a 16.668749,16.668749 0 0 0 16.668746,16.66875 16.668749,16.668749 0 0 0 16.66875,-16.66875 z"
       id="path831"
       inkscape:connector-curvature="0" />
    <rect
       style="fill:#ffffff;fill-opacity:1;stroke-width:0.22669369"
       id="rect837"
       width="33.337002"
       height="7.7691684"
       x="89.694244"
       y="121.48495" />
    <g
       id="g867"
       transform="matrix(1.5088969,0,0,1.3531469,-76.119451,-8.8266865)">
      <g
         id="g1076">
        <path
           style="fill:#482a15;fill-opacity:1;stroke-width:0.26458332"
           d="m 110.38232,34.795231 h 25.81823 c 7.41077,0 13.37684,5.96607 13.37684,13.37684 0,7.410769 -5.96607,13.376839 -13.37684,13.376839 h -25.81823 c -7.41077,0 -13.376842,-5.96607 -13.376842,-13.376839 0,-7.41077 5.966072,-13.37684 13.376842,-13.37684 z"
           id="rect861"
           inkscape:connector-curvature="0" />
        <path
           style="fill:#482a15;fill-opacity:1;stroke-width:0.21577647"
           d="m 115.90143,34.795231 h 33.67596 v 13.189751 h -33.67596 z"
           id="rect863"
           inkscape:connector-curvature="0" />
      </g>
    </g>
    <g
       transform="matrix(1.133452,0,0,1,-19.961396,3.4611404)"
       id="g879"
       style="fill:none">
      <rect
         style="fill:none;fill-opacity:1;stroke-width:0.26458332"
         id="rect875"
         width="52.571915"
         height="26.753679"
         x="97.005478"
         y="34.795231"
         ry="13.37684"
         rx="13.37684" />
      <rect
         style="fill:none;fill-opacity:1;stroke-width:0.21577647"
         id="rect877"
         width="33.675964"
         height="13.189751"
         x="115.90143"
         y="34.795231"
         rx="0"
         ry="0" />
    </g>
    <path
       style="fill:#916f6f;fill-opacity:1;stroke-width:1.21040761"
       d="m 290.92578,192.32031 h 23.72461 c 7.73055,-16.24044 24.13387,-27.49804 43.38086,-27.49804 h 25.92773 v -10.37305 h -38.2832 c -25.13867,0 -46.41825,15.7145 -54.75,37.87109 z"
       id="rect1179"
       transform="scale(0.26458333)"
       inkscape:connector-curvature="0" />
    <path
       style="fill:#432612;fill-opacity:1;stroke-width:0.70710677"
       d="m 334.592,280.67328 c -18.96103,-1.4326 -37.56954,-9.97531 -50.54657,-23.2047 -7.82018,-7.97226 -13.15121,-17.3111 -15.98479,-28.00201 -2.3898,-9.01651 -2.43844,-24.29462 -0.10309,-32.37736 3.36192,-11.63569 7.92044,-19.4359 16.75258,-28.66581 8.42981,-8.80946 18.54724,-15.14951 30.64176,-19.20155 13.13127,-4.39938 8.35447,-4.24857 134.67529,-4.25169 l 115.08163,-0.003 -0.014,35.88567 c -0.008,19.8863 -0.32639,38.0465 -0.71466,40.73229 -1.06998,7.40138 -4.71847,17.49914 -8.604,23.81291 -3.87656,6.29921 -12.37629,15.84757 -17.79396,19.98924 -11.45875,8.75993 -26.24134,14.03885 -42.95111,15.33798 -10.41443,0.80969 -149.63118,0.76447 -160.43908,-0.0521 z m -17.21924,-92.74923 c 3.33048,-5.48771 10.69324,-12.85409 15.95212,-15.95996 9.41951,-5.56312 18.0126,-7.16406 38.567,-7.18523 l 12.1976,-0.0126 v -5.3033 -5.3033 l -21.38998,0.005 c -11.76449,0.003 -23.45827,0.33708 -25.98618,0.74257 -18.84961,3.0236 -35.10046,15.01535 -43.75725,32.28914 -1.21258,2.41959 -2.20469,4.56742 -2.20469,4.77297 0,0.20554 5.38633,0.37372 11.96962,0.37372 h 11.96962 z"
       id="path1403"
       inkscape:connector-curvature="0"
       transform="scale(0.26458333)" />
  </g>
</svg>
